<svg viewBox="0 0 24 24" xmlns="http://www.w3.org/2000/svg" xmlns:xlink="http://www.w3.org/1999/xlink" width="24.000000" height="24.000000" fill="none">
	<rect id="Truck" width="24.000000" height="24.000000" x="0.000000" y="0.000000" fill="rgb(255,255,255)" fill-opacity="0" />
	<path id="Vector" />
	<path id="Vector" d="M17.25 7.5L21.2419 7.5C21.3913 7.49993 21.5374 7.54451 21.6613 7.62803C21.7853 7.71155 21.8815 7.8302 21.9375 7.96875L23.25 11.25" fill-rule="nonzero" stroke="rgb(113,166,108)" stroke-linecap="round" stroke-linejoin="round" stroke-width="2" />
	<path id="Vector" d="M2.25 13.5L17.25 13.5" stroke="rgb(113,166,108)" stroke-linecap="round" stroke-linejoin="round" stroke-width="2" />
	<path id="Vector" d="M18 20.25C16.7574 20.25 15.75 19.2426 15.75 18C15.75 16.7574 16.7574 15.75 18 15.75C19.2426 15.75 20.25 16.7574 20.25 18C20.25 19.2426 19.2426 20.25 18 20.25Z" stroke="rgb(113,166,108)" stroke-linecap="round" stroke-linejoin="round" stroke-width="2" />
	<path id="Vector" d="M7.5 20.25C6.25736 20.25 5.25 19.2426 5.25 18C5.25 16.7574 6.25736 15.75 7.5 15.75C8.74264 15.75 9.75 16.7574 9.75 18C9.75 19.2426 8.74264 20.25 7.5 20.25Z" stroke="rgb(113,166,108)" stroke-linecap="round" stroke-linejoin="round" stroke-width="2" />
	<path id="Vector" d="M15.75 18L9.75 18" stroke="rgb(113,166,108)" stroke-linecap="round" stroke-linejoin="round" stroke-width="2" />
	<path id="Vector" d="M17.25 11.25L23.25 11.25L23.25 17.25C23.25 17.4489 23.171 17.6397 23.0303 17.7803C22.8897 17.921 22.6989 18 22.5 18L20.25 18" fill-rule="nonzero" stroke="rgb(113,166,108)" stroke-linecap="round" stroke-linejoin="round" stroke-width="2" />
	<path id="Vector" d="M5.25 18L3 18C2.80109 18 2.61032 17.921 2.46967 17.7803C2.32902 17.6397 2.25 17.4489 2.25 17.25L2.25 6.75C2.25 6.55109 2.32902 6.36032 2.46967 6.21967C2.61032 6.07902 2.80109 6 3 6L17.25 6L17.25 15.8784" fill-rule="nonzero" stroke="rgb(113,166,108)" stroke-linecap="round" stroke-linejoin="round" stroke-width="2" />
</svg>
